# xmcd
# Track frame offsets:
# 150
# 12574
# 22560
# 38655
# 53498
# 72805
# 83607
#
# Disc length: 1399 seconds
# Revision: 0
# Processed by: cddbd v1.5.2PL0 Copyright (c) Steve Scherf et al.
# Submitted via: VisiTrax 2.11.0.264 - For more info visit www.synapsa.com
#
DISCID=40057507
DTITLE=Sue Ray - Best Beware
DYEAR=2008
DGENRE=
TTITLE0=I'm comin round
TTITLE1=Last cigarette
TTITLE2=Away from here
TTITLE3=My tonight
TTITLE4=Best beware
TTITLE5=Black is the colour
TTITLE6=Crazy
EXTD=
EXTT0=
EXTT1=
EXTT2=
EXTT3=
EXTT4=
EXTT5=
EXTT6=
PLAYORDER=
